<svg height="512pt" viewBox="-5 0 512 512.00033" width="512pt" xmlns="http://www.w3.org/2000/svg"><path d="m409.605469 34.132812h17.066406v17.066407h-17.066406zm0 0"/><path d="m409.605469 68.265625h17.066406v17.066406h-17.066406zm0 0"/><path d="m409.605469 102.398438h17.066406v17.066406h-17.066406zm0 0"/><path d="m51.207031 0h17.066407v17.066406h-17.066407zm0 0"/><path d="m51.207031 34.132812h17.066407v17.066407h-17.066407zm0 0"/><path d="m51.207031 68.265625h17.066407v17.066406h-17.066407zm0 0"/><path d="m221.871094 349.867188h-68.265625c-4.710938 0-8.53125 3.820312-8.53125 8.53125 0 4.714843 3.820312 8.535156 8.53125 8.535156h68.265625c4.714844 0 8.535156-3.820313 8.535156-8.535156 0-4.710938-3.820312-8.53125-8.535156-8.53125zm0 0"/><path d="m204.804688 384h-34.132813c-4.710937 0-8.53125 3.820312-8.53125 8.535156 0 4.710938 3.820313 8.53125 8.53125 8.53125h34.132813c4.714843 0 8.535156-3.820312 8.535156-8.53125 0-4.714844-3.820313-8.535156-8.535156-8.535156zm0 0"/><path d="m48.246094 137.128906c-.25.097656-.496094.203125-.734375.324219-.726563.355469-1.398438.808594-1.996094 1.351563-.144531.109374-.285156.222656-.417969.347656-.613281.617187-1.128906 1.328125-1.527344 2.101562l-42.667968 85.332032c-2.105469 4.214843-.398438 9.339843 3.820312 11.449218 1.183594.589844 2.492188.898438 3.816406.898438h34.132813v187.734375c0 4.710937 3.820313 8.53125 8.535156 8.53125h209.226563l20.191406 34.988281c2.355469 4.082031 7.574219 5.480469 11.65625 3.121094l35.839844-20.675782c1.117187.855469 2.261718 1.605469 3.6875 2.5625l1.613281 1.039063c1.371094.855469 2.78125 1.707031 4.179687 2.464844l1.390626.742187c1.621093.855469 3.269531 1.707032 5.546874 2.679688v41.347656c0 4.710938 3.820313 8.53125 8.535157 8.53125h51.199219c4.710937 0 8.53125-3.820312 8.53125-8.53125v-41.320312c2.957031-1.292969 5.835937-2.753907 8.628906-4.367188 2.011718-1.171875 3.96875-2.433594 5.828125-3.722656l.777343-.511719 1.253907-.914063 35.78125 20.660157c4.078125 2.355469 9.296875.957031 11.65625-3.125l25.597656-44.371094c2.355469-4.082031.960937-9.300781-3.121094-11.65625l-35.753906-20.652344c.738281-6.328125.738281-12.722656 0-19.054687l35.753906-20.640625c4.082031-2.355469 5.476563-7.574219 3.121094-11.65625l-25.597656-44.375c-2.359375-4.082031-7.578125-5.480469-11.65625-3.121094l-35.839844 20.675781c-.855469-.605468-1.707031-1.109375-2.5625-1.707031v-74.675781h42.667969c4.710937 0 8.53125-3.824219 8.53125-8.535156 0-1.546876-.421875-3.066407-1.21875-4.394532l-51.199219-85.332031c-.335937-.535156-.734375-1.035156-1.179687-1.484375-.050782-.050781-.085938-.128906-.144532-.179688-.695312-.671874-1.5-1.21875-2.378906-1.613281-.222656-.101562-.4375-.179687-.660156-.265625-.9375-.375-1.9375-.574218-2.949219-.597656h-25.601563v-128c0-4.710938-3.820312-8.53125-8.535156-8.53125h-290.132812c-4.710938 0-8.53125 3.820312-8.53125 8.53125v128h-34.132813c-1.015625.019531-2.019531.222656-2.960937.597656zm209.917968 277.042969c-1.535156.921875-2.730468 2.308594-3.414062 3.960937h-195.011719v-179.199218h213.335938c3.25.015625 6.226562-1.8125 7.679687-4.71875l26.453125-53v122.101562l-14.925781-8.609375c-4.082031-2.355469-9.300781-.957031-11.65625 3.125l-25.601562 44.371094c-2.355469 4.082031-.957032 9.300781 3.125 11.65625l35.761718 20.652344c-.066406.5625-.125 1.140625-.1875 1.707031-.230468 2.558594-.382812 5.117188-.382812 7.78125s.164062 5.265625.402344 7.960938c.050781.519531.109374 1.050781.160156 1.570312zm174.609376-81.066406 33.460937-19.316407 17.066406 29.558594-33.398437 19.285156c-3.132813 1.804688-4.789063 5.386719-4.132813 8.941407 1.582031 8.230469 1.582031 16.6875 0 24.917969-.65625 3.554687.992188 7.136718 4.121094 8.945312l33.410156 19.285156-17.066406 29.558594-33.410156-19.292969c-3.132813-1.808593-7.0625-1.449219-9.8125.902344-1.5625 1.332031-3.183594 2.558594-4.746094 3.703125l-.714844.46875c-1.519531 1.058594-3.082031 2.074219-4.855469 3.097656-3.585937 2.066406-7.355468 3.800782-11.253906 5.179688-3.410156 1.207031-5.6875 4.433594-5.683594 8.046875v38.546875h-34.136718v-38.578125c.003906-3.617188-2.273438-6.839844-5.679688-8.046875-1.539062-.546875-3.039062-1.164063-5.027344-2.042969-1.339843-.585937-2.636718-1.234375-3.960937-1.933594l-1.109375-.597656c-1.132812-.625-2.261719-1.28125-3.351562-1.964844l-1.527344-1.003906c-.964844-.640625-1.921875-1.289063-2.867188-2l-3.738281-2.917969c-2.746094-2.347656-6.675781-2.707031-9.804687-.902344l-33.410157 19.292969-17.066406-29.515625v-.054687l33.382813-19.273438c3.132812-1.808593 4.789062-5.390625 4.132812-8.945312-.378906-2.003907-.675781-4.027344-.855469-5.296875 0-.257813 0-.597656-.042969-.855469-.1875-2.074219-.324218-4.171875-.324218-6.296875s.128906-4.191406.359375-6.578125c.1875-1.980469.476562-3.941406.851562-5.878906.65625-3.554688-.996093-7.140625-4.128906-8.945313l-33.390625-19.285156 17.066406-29.558594 33.453125 19.3125c3.117188 1.816406 7.042969 1.476563 9.804688-.855468 1.464843-1.253907 3.011719-2.433594 4.589843-3.566407l.808594-.570312c1.324219-.914063 2.671875-1.785157 4.105469-2.636719l1.195313-.703125c1.304687-.742187 2.644531-1.433594 3.992187-2.070313l1.375-.683593c1.785156-.8125 3.59375-1.570313 5.453125-2.226563 3.40625-1.207031 5.683594-4.433594 5.683594-8.046875v-38.640625h34.132812v38.597656c0 3.617188 2.28125 6.839844 5.691406 8.046876 7.878907 2.792968 15.175782 7.015624 21.519532 12.457031 2.75 2.355469 6.6875 2.71875 9.824218.90625zm-108.5-19.933594v-139.664063l36.769531 61.285157c1.542969 2.570312 4.324219 4.144531 7.320312 4.140625h41.242188v19.089844c-1.484375-1.277344-3.375-1.992188-5.332031-2.023438h-51.203126c-4.710937 0-8.53125 3.820312-8.53125 8.53125v41.363281l-1.144531.511719-1.707031.851562c-1.707031.855469-3.414062 1.707032-5 2.613282l-1.550781.914062c-1.707031 1.023438-3.414063 2.105469-5.222657 3.359375l-.855468.605469-.9375.675781zm17.066406-296.105469h34.132812v51.199219h-34.132812zm0 68.265625h34.132812v51.203125h-34.132812zm-8.535156 68.269531h80.503906l40.960937 68.265626h-81.066406l-40.960937-68.265626zm-230.398438-136.535156h221.867188v51.199219h-68.265626v-25.597656c0-4.714844-3.824218-8.535157-8.535156-8.535157h-68.265625c-4.714843 0-8.535156 3.820313-8.535156 8.535157v25.597656h-68.265625zm85.332031 51.199219v-17.066406h51.199219v17.066406zm51.199219 17.066406v17.066407h-51.199219v-17.066407zm-136.53125 0h68.265625v25.601563c0 4.710937 3.820313 8.53125 8.535156 8.53125h68.265625c4.714844 0 8.535156-3.820313 8.535156-8.53125v-25.601563h68.265626v51.203125h-221.867188zm199.527344 68.269531-34.132813 68.265626h-245.453125l34.132813-68.265626zm0 0"/><path d="m230.40625 264.53125h-85.332031c-4.714844 0-8.535157 3.824219-8.535157 8.535156v51.199219c0 4.714844 3.820313 8.535156 8.535157 8.535156h85.332031c4.710938 0 8.535156-3.820312 8.535156-8.535156v-51.199219c-.003906-4.710937-3.824218-8.535156-8.535156-8.535156zm-8.535156 51.203125h-68.265625v-34.132813h68.265625zm0 0"/><path d="m378.671875 349.867188c-18.851563 0-34.132813 15.28125-34.132813 34.132812s15.28125 34.132812 34.132813 34.132812 34.132813-15.28125 34.132813-34.132812-15.28125-34.132812-34.132813-34.132812zm0 51.199218c-9.425781 0-17.066406-7.640625-17.066406-17.066406s7.640625-17.066406 17.066406-17.066406 17.066406 7.640625 17.066406 17.066406-7.640625 17.066406-17.066406 17.066406zm0 0"/></svg>