<svg height="496pt" viewBox="0 0 496 496" width="496pt" xmlns="http://www.w3.org/2000/svg"><path d="m464 64.808594v-24.808594c0-4.425781-3.585938-8-8-8h-8v-24c0-4.425781-3.585938-8-8-8h-32c-4.414062 0-8 3.574219-8 8v24h-8c-4.414062 0-8 3.574219-8 8v24h-50.457031l-22.054688-58.816406c-1.167969-3.113282-4.152343-5.183594-7.488281-5.183594h-112c-3.335938 0-6.320312 2.070312-7.496094 5.183594l-22.046875 58.816406h-66.457031v-40c0-4.425781-3.585938-8-8-8h-48c-4.414062 0-8 3.574219-8 8v40.808594c-18.230469 3.71875-32 19.878906-32 39.191406v224c0 22.054688 17.945312 40 40 40h120v40c0 4.425781 3.585938 8 8 8h24v24c0 4.425781 3.585938 8 8 8h8v48h16v-48h48v48h16v-48h8c4.414062 0 8-3.574219 8-8v-24h24c4.414062 0 8-3.574219 8-8v-40h120c22.054688 0 40-17.945312 40-40v-224c0-19.3125-13.769531-35.472656-32-39.191406zm-48-48.808594h16v16h-16zm-16 32h48v16h-48zm-202.457031-32h100.914062l18 48h-136.914062zm-117.542969 16v32h-32v-32zm208 400h-80v-16h80zm32-32h-144v-32h144zm160-72c0 13.230469-10.769531 24-24 24h-416c-13.230469 0-24-10.769531-24-24v-224c0-13.230469 10.769531-24 24-24h416c13.230469 0 24 10.769531 24 24zm0 0"/><path d="m248 96c-66.167969 0-120 53.832031-120 120s53.832031 120 120 120 120-53.832031 120-120-53.832031-120-120-120zm0 224c-57.34375 0-104-46.65625-104-104s46.65625-104 104-104 104 46.65625 104 104-46.65625 104-104 104zm0 0"/><path d="m304 216c0-30.871094-25.121094-56-56-56s-56 25.128906-56 56 25.121094 56 56 56 56-25.128906 56-56zm-96 0c0-22.054688 17.945312-40 40-40s40 17.945312 40 40-17.945312 40-40 40-40-17.945312-40-40zm0 0"/><path d="m248 144v-16c-48.519531 0-88 39.480469-88 88h16c0-39.703125 32.304688-72 72-72zm0 0"/><path d="m248 288v16c48.519531 0 88-39.480469 88-88h-16c0 39.703125-32.304688 72-72 72zm0 0"/><path d="m56 96c-13.230469 0-24 10.769531-24 24v192c0 13.230469 10.769531 24 24 24s24-10.769531 24-24v-192c0-13.230469-10.769531-24-24-24zm8 216c0 4.414062-3.59375 8-8 8s-8-3.585938-8-8v-192c0-4.414062 3.59375-8 8-8s8 3.585938 8 8zm0 0"/><path d="m440 96c-13.230469 0-24 10.769531-24 24v192c0 13.230469 10.769531 24 24 24s24-10.769531 24-24v-192c0-13.230469-10.769531-24-24-24zm8 216c0 4.414062-3.59375 8-8 8s-8-3.585938-8-8v-192c0-4.414062 3.59375-8 8-8s8 3.585938 8 8zm0 0"/><path d="m376 96c-13.230469 0-24 10.769531-24 24s10.769531 24 24 24 24-10.769531 24-24-10.769531-24-24-24zm0 32c-4.40625 0-8-3.585938-8-8s3.59375-8 8-8 8 3.585938 8 8-3.59375 8-8 8zm0 0"/></svg>